<svg xmlns="http://www.w3.org/2000/svg" width="20" height="20" viewBox="0 0 20 20">
  <defs>
    <style>
      .cls-1, .cls-2 {
        fill: #9ea0a5;
      }

      .cls-1 {
        opacity: 0;
      }
    </style>
  </defs>
  <g id="组_4675" data-name="组 4675" transform="translate(-24 -351)">
    <rect id="矩形_226" data-name="矩形 226" class="cls-1" width="20" height="20" transform="translate(24 351)"/>
    <g id="组_4676" data-name="组 4676" transform="translate(24 351)">
      <path id="路径_3547" data-name="路径 3547" class="cls-2" d="M106.759,118.44H103.5a1.367,1.367,0,0,1-1.366-1.366v-1.782a7.671,7.671,0,0,1-1.472-.814l-1.513.873a1.366,1.366,0,0,1-1.865-.5l-1.629-2.824a1.366,1.366,0,0,1,.5-1.865l1.313-.758a7.8,7.8,0,0,1-.105-1.28q0-.347.031-.693l-1.239-.714a1.366,1.366,0,0,1-.5-1.864l1.63-2.824a1.366,1.366,0,0,1,1.865-.5l1.043.6a7.78,7.78,0,0,1,1.941-1.171V99.806A1.367,1.367,0,0,1,103.5,98.44h3.261a1.367,1.367,0,0,1,1.366,1.366v1.156a7.785,7.785,0,0,1,1.939,1.171l1.045-.6a1.366,1.366,0,0,1,1.865.5l1.629,2.824a1.366,1.366,0,0,1-.5,1.865l-1.242.719c.02.23.031.46.031.69a7.807,7.807,0,0,1-.105,1.278l1.318.759a1.366,1.366,0,0,1,.5,1.865l-1.629,2.824a1.367,1.367,0,0,1-1.865.5l-1.514-.874a7.666,7.666,0,0,1-1.47.813v1.784A1.367,1.367,0,0,1,106.759,118.44Zm-2.392-2.234h1.524v-2.538l.8-.236a5.48,5.48,0,0,0,2.071-1.14l.6-.526,2.108,1.217.762-1.319-2.031-1.173.24-.838a5.571,5.571,0,0,0,.11-2.594l-.153-.783,1.833-1.059-.761-1.319-1.76,1.016-.605-.628a5.539,5.539,0,0,0-2.415-1.466l-.8-.236v-1.908h-1.525v1.908l-.8.236a5.539,5.539,0,0,0-2.417,1.466l-.606.628L98.784,103.9l-.762,1.319,1.83,1.054-.153.783a5.579,5.579,0,0,0,.11,2.6l.241.839-2.027,1.171.762,1.319,2.1-1.215.6.525a5.482,5.482,0,0,0,2.075,1.14l.8.236ZM112.987,112.1Z" transform="translate(-95.47 -98.44)"/>
      <path id="路径_3548" data-name="路径 3548" class="cls-2" d="M372.068,376.786a3.318,3.318,0,1,1,3.318-3.318A3.322,3.322,0,0,1,372.068,376.786Zm0-4.4a1.084,1.084,0,1,0,1.084,1.084A1.084,1.084,0,0,0,372.068,372.384Z" transform="translate(-362.39 -363.827)"/>
    </g>
  </g>
</svg>
