<svg xmlns="http://www.w3.org/2000/svg" width="20.001" height="20.002" viewBox="0 0 20.001 20.002">
  <defs>
    <style>
      .cls-1 {
        fill: #facf55;
      }
    </style>
  </defs>
  <g id="组_4681" data-name="组 4681" transform="translate(-64.462 -64.561)">
    <path id="减去_2" data-name="减去 2" class="cls-1" d="M4803.46,19348.563a10,10,0,1,1,10-10A10.01,10.01,0,0,1,4803.46,19348.563Zm0-4.865a.67.67,0,1,0,.67.67A.671.671,0,0,0,4803.46,19343.7Zm0-11.605a.667.667,0,0,0-.67.664v8.93a.671.671,0,0,0,.67.67.662.662,0,0,0,.67-.67v-8.93A.667.667,0,0,0,4803.46,19332.092Z" transform="translate(-4729 -19264)"/>
  </g>
</svg>
