<svg id="组_4688" data-name="组 4688" xmlns="http://www.w3.org/2000/svg" width="20" height="20" viewBox="0 0 20 20">
  <defs>
    <style>
      .cls-1, .cls-2, .cls-4 {
        fill: #3bad4b;
      }

      .cls-1 {
        opacity: 0.2;
      }

      .cls-3, .cls-4 {
        stroke: none;
      }
    </style>
  </defs>
  <g id="路径_3557" data-name="路径 3557" class="cls-1">
    <path class="cls-3" d="M 10 19.5 C 4.761680126190186 19.5 0.5 15.23832035064697 0.5 10 C 0.5 4.761680126190186 4.761680126190186 0.5 10 0.5 C 15.23832035064697 0.5 19.5 4.761680126190186 19.5 10 C 19.5 15.23832035064697 15.23832035064697 19.5 10 19.5 Z"/>
    <path class="cls-4" d="M 10 1 C 5.037380218505859 1 1 5.037380218505859 1 10 C 1 14.96261978149414 5.037380218505859 19 10 19 C 14.96261978149414 19 19 14.96261978149414 19 10 C 19 5.037380218505859 14.96261978149414 1 10 1 M 10 0 C 15.52285003662109 0 20 4.477149963378906 20 10 C 20 15.52285003662109 15.52285003662109 20 10 20 C 4.477149963378906 20 0 15.52285003662109 0 10 C 0 4.477149963378906 4.477149963378906 0 10 0 Z"/>
  </g>
  <g id="组_4691" data-name="组 4691" transform="translate(-53.53 -46.198)">
    <path id="路径_3561" data-name="路径 3561" class="cls-2" d="M532.7,85.167l.237.851a2.648,2.648,0,0,1,2.7.644,2.832,2.832,0,0,1,.648,2.611c.217.085.563.191.831.3a3.726,3.726,0,0,0-.844-3.547A3.543,3.543,0,0,0,532.7,85.167Z" transform="translate(-468.888 -33.239)"/>
    <path id="路径_3562" data-name="路径 3562" class="cls-2" d="M504.327,99.35a.441.441,0,1,0,0-.624A.441.441,0,0,0,504.327,99.35Z" transform="translate(-440.694 -46.688)"/>
    <path id="路径_3563" data-name="路径 3563" class="cls-2" d="M717.11,402.473a.441.441,0,1,0,0-.624A.441.441,0,0,0,717.11,402.473Z" transform="translate(-651.182 -346.542)"/>
    <path id="路径_3564" data-name="路径 3564" class="cls-2" d="M564.938,250.21a.441.441,0,1,0,0-.624A.441.441,0,0,0,564.938,250.21Z" transform="translate(-500.651 -195.921)"/>
    <path id="路径_3565" data-name="路径 3565" class="cls-2" d="M862.124,457.145a.441.441,0,1,0,0-.624A.441.441,0,0,0,862.124,457.145Z" transform="translate(-794.632 -400.624)"/>
    <path id="路径_3566" data-name="路径 3566" class="cls-2" d="M597.5,248.447l.149.87a1.017,1.017,0,0,1,1.142,1.124l.69.187.015-.017a.18.18,0,0,1,.174-.05,1.9,1.9,0,0,0-.542-1.582A1.943,1.943,0,0,0,597.5,248.447Z" transform="translate(-532.989 -194.904)"/>
    <path id="路径_3567" data-name="路径 3567" class="cls-2" d="M68.185,59.909a.442.442,0,0,0,.044-.112,2.125,2.125,0,1,0-4.107-1.091,5.037,5.037,0,0,1-2.76-3.119,2.125,2.125,0,0,0,1.586-2.055v-.019a2.125,2.125,0,0,0-4.249.02c0,.03,0,.06,0,.091,0,.052,0,.1,0,.155a7.558,7.558,0,0,0,7.567,7.555l.093,0a.389.389,0,0,0,.107-.018,2.113,2.113,0,0,0,1.718-1.4Z"/>
  </g>
</svg>
