<svg xmlns="http://www.w3.org/2000/svg" width="48" height="48" viewBox="0 0 48 48">
  <defs>
    <style>
      .cls-1, .cls-4 {
        fill: #f0f2f5;
      }

      .cls-2 {
        fill: #fff;
        opacity: 0;
      }

      .cls-3, .cls-4 {
        stroke: none;
      }
    </style>
  </defs>
  <g id="组_4700" data-name="组 4700" transform="translate(-14 -159)">
    <g id="组_4591" data-name="组 4591" transform="translate(-49 96)">
      <g id="路径_3518" data-name="路径 3518" class="cls-1" transform="translate(-364.412)">
        <path class="cls-3" d="M 469.2208251953125 93.88271331787109 L 453.7132568359375 93.88271331787109 C 452.5374755859375 93.88271331787109 451.5809020996094 92.92613220214844 451.5809020996094 91.75032806396484 C 451.5809020996094 90.57453155517578 452.5374755859375 89.61795043945313 453.7132568359375 89.61795043945313 L 469.2208251953125 89.61795043945313 C 469.8451843261719 89.61795043945313 470.3531494140625 89.10997009277344 470.3531494140625 88.48558044433594 L 470.3531494140625 73.79424285888672 C 470.3531494140625 73.16985321044922 469.8451843261719 72.66187286376953 469.2208251953125 72.66187286376953 L 461.2056274414063 72.66187286376953 C 460.2896118164063 75.55886840820313 457.5985107421875 77.5535888671875 454.5303344726563 77.55899047851563 C 450.6534118652344 77.55899047851563 447.5 74.40557098388672 447.5 70.52950286865234 C 447.5 66.65342712402344 450.6534118652344 63.5000114440918 454.5294494628906 63.5000114440918 C 457.5984497070313 63.50539016723633 460.2896118164063 65.50011444091797 461.2056274414063 68.39713287353516 L 469.2208251953125 68.39713287353516 C 472.1968078613281 68.39713287353516 474.617919921875 70.81826019287109 474.617919921875 73.79424285888672 L 474.617919921875 88.48558044433594 C 474.617919921875 91.46157073974609 472.1968078613281 93.88271331787109 469.2208251953125 93.88271331787109 Z M 454.5303039550781 67.26312255859375 L 454.5302734375 67.76312255859375 C 453.0057373046875 67.76312255859375 451.7651062011719 69.00344085693359 451.7647094726563 70.52799987792969 C 451.7645263671875 71.26669311523438 452.0520324707031 71.96125793457031 452.5742492675781 72.48374176025391 C 453.096435546875 73.00621795654297 453.7908630371094 73.29405975341797 454.5295715332031 73.29424285888672 C 456.0548400878906 73.29424285888672 457.2954711914063 72.05393218994141 457.2958374023438 70.52938079833984 C 457.2960205078125 69.79065704345703 457.008544921875 69.09609222412109 456.486328125 68.57362365722656 C 455.964111328125 68.0511474609375 455.2696838378906 67.76329803466797 454.5309753417969 67.76312255859375 L 454.5303039550781 67.26312255859375 Z"/>
        <path class="cls-4" d="M 454.5294494628906 64.00000762939453 C 450.92333984375 64.00000762939453 448 66.92334747314453 448 70.52950286865234 C 448 74.13562774658203 450.92333984375 77.05899047851563 454.5294494628906 77.05899047851563 C 457.5001525878906 77.05375671386719 460.0910949707031 75.03954315185547 460.8287658691406 72.16185760498047 L 469.2208251953125 72.16185760498047 C 470.122314453125 72.16185760498047 470.8531494140625 72.89270782470703 470.8531494140625 73.79424285888672 L 470.8531494140625 88.48558044433594 C 470.8531494140625 89.38710784912109 470.122314453125 90.11795043945313 469.2208251953125 90.11795043945313 L 453.7132568359375 90.11795043945313 C 452.8117370605469 90.11795043945313 452.0809020996094 90.84880065917969 452.0809020996094 91.75032806396484 C 452.0809020996094 92.65187072753906 452.8117370605469 93.38271331787109 453.7132568359375 93.38271331787109 L 469.2208251953125 93.38271331787109 C 471.9254150390625 93.38271331787109 474.117919921875 91.19019317626953 474.117919921875 88.48558044433594 L 474.117919921875 73.79424285888672 C 474.117919921875 71.08963775634766 471.9254150390625 68.89711761474609 469.2208251953125 68.89711761474609 L 460.8287658691406 68.89711761474609 C 460.0910949707031 66.01943969726563 457.5001525878906 64.00521850585938 454.5294494628906 64.00000762939453 M 454.5302734375 73.79424285888672 C 454.5299377441406 73.79424285888672 454.52978515625 73.79424285888672 454.5294494628906 73.79424285888672 C 452.7259521484375 73.79380035400391 451.2642517089844 72.33138275146484 451.2647094726563 70.52786254882813 C 451.2651977539063 68.72467803955078 452.7272033691406 67.26310729980469 454.5302734375 67.26310729980469 C 454.5306091308594 67.26310729980469 454.53076171875 67.26310729980469 454.5310974121094 67.26310729980469 C 456.3346252441406 67.26357269287109 457.7962951660156 68.72596740722656 457.7958374023438 70.52950286865234 C 457.79541015625 72.33267974853516 456.3333435058594 73.79424285888672 454.5302734375 73.79424285888672 M 454.5294494628906 63.00000762939453 L 454.5303344726563 63.00000762939453 L 454.5311889648438 63.00000762939453 C 457.6933898925781 63.00555419921875 460.4816589355469 64.98350524902344 461.5624694824219 67.89711761474609 L 469.2208251953125 67.89711761474609 C 472.4725036621094 67.89711761474609 475.117919921875 70.54255676269531 475.117919921875 73.79424285888672 L 475.117919921875 88.48558044433594 C 475.117919921875 91.73727416992188 472.4725036621094 94.38270568847656 469.2208251953125 94.38270568847656 L 453.7132568359375 94.38270568847656 C 452.2617797851563 94.38270568847656 451.0809020996094 93.20182800292969 451.0809020996094 91.75032806396484 C 451.0809020996094 90.298828125 452.2617797851563 89.11795043945313 453.7132568359375 89.11795043945313 L 469.2208251953125 89.11795043945313 C 469.5694885253906 89.11795043945313 469.8531494140625 88.83426666259766 469.8531494140625 88.48558044433594 L 469.8531494140625 73.79424285888672 C 469.8531494140625 73.44554138183594 469.5694885253906 73.16185760498047 469.2208251953125 73.16185760498047 L 461.5624694824219 73.16185760498047 C 460.4816589355469 76.07546997070313 457.6933898925781 78.05342102050781 454.5312194824219 78.05899047851563 C 450.377685546875 78.05899047851563 447 74.68126678466797 447 70.52950286865234 C 447 66.37773132324219 450.377685546875 63.00000762939453 454.5294494628906 63.00000762939453 Z M 454.5302734375 73.79424285888672 L 454.5302734375 72.79424285888672 C 455.7792053222656 72.79424285888672 456.7955322265625 71.77816772460938 456.7958374023438 70.52925872802734 C 456.7959899902344 69.92408752441406 456.5604858398438 69.3551025390625 456.1326904296875 68.92707824707031 C 455.7048950195313 68.49906921386719 455.1360168457031 68.26325988769531 454.5308532714844 68.26310729980469 C 453.2813720703125 68.26310729980469 452.2650451660156 69.27919006347656 452.2647094726563 70.52812957763672 C 452.2645568847656 71.13326263427734 452.5000610351563 71.70226287841797 452.9278869628906 72.13027191162109 C 453.3556823730469 72.55828857421875 453.924560546875 72.79409027099609 454.5296936035156 72.79424285888672 L 454.5302734375 73.79424285888672 Z"/>
      </g>
      <g id="路径_3519" data-name="路径 3519" class="cls-1" transform="translate(0 -91.103)">
        <path class="cls-3" d="M 103.1709213256836 201.3099212646484 C 103.170768737793 201.3099212646484 103.1706466674805 201.3099212646484 103.1704940795898 201.3099212646484 C 101.5736618041992 201.3097991943359 100.0071411132813 200.7549896240234 98.75949096679688 199.7476654052734 C 97.60657501220703 198.8168334960938 96.77555084228516 197.5367889404297 96.39017486572266 196.1101989746094 L 80.32371520996094 196.1101989746094 C 78.89802551269531 196.1089172363281 77.55435943603516 195.5569305419922 76.53981018066406 194.5559234619141 C 75.61504364013672 193.6435089111328 75.05962371826172 192.4525604248047 74.95307922363281 191.1697082519531 C 72.19943237304688 190.3116607666016 70.25559997558594 187.853759765625 70.04792785644531 184.9855804443359 L 68.89712524414063 184.9855804443359 C 65.921142578125 184.9855804443359 63.50000381469727 182.5644378662109 63.50000381469727 179.5884552001953 L 63.50000381469727 164.8971252441406 C 63.50000381469727 161.921142578125 65.921142578125 159.5 68.89712524414063 159.5 L 79.50754547119141 159.5 C 80.68333435058594 159.5 81.63991546630859 160.4565887451172 81.63991546630859 161.6323699951172 C 81.63991546630859 162.8081817626953 80.68333435058594 163.7647552490234 79.50754547119141 163.7647552490234 L 68.89712524414063 163.7647552490234 C 68.27272033691406 163.7647552490234 67.76473999023438 164.2727355957031 67.76473999023438 164.8971252441406 L 67.76473999023438 179.5884552001953 C 67.76473999023438 180.2128448486328 68.27272033691406 180.7208251953125 68.89712524414063 180.7208251953125 L 71.15475463867188 180.7208251953125 C 71.75293731689453 179.7826690673828 72.56289672851563 178.9943237304688 73.51160430908203 178.4297485351563 C 74.58190155029297 177.7927856445313 75.80856323242188 177.4561004638672 77.05898284912109 177.4561004638672 L 77.09424591064453 177.4560089111328 C 80.61183929443359 177.4560089111328 83.60205841064453 180.0872802734375 84.04975128173828 183.5765991210938 C 84.47972869873047 186.9275054931641 82.45088195800781 190.0931549072266 79.281494140625 191.1324310302734 C 79.44579315185547 191.5500030517578 79.85085296630859 191.8422546386719 80.32536315917969 191.8438110351563 L 96.61458587646484 191.8438110351563 C 97.08496856689453 190.5711669921875 97.89962768554688 189.473388671875 98.98673248291016 188.6526794433594 C 100.2019500732422 187.7352294921875 101.6508941650391 187.2503051757813 103.1769256591797 187.2503051757813 C 104.9643859863281 187.2502746582031 106.6682815551758 187.922119140625 107.9747085571289 189.1420593261719 C 109.2811508178711 190.3620300292969 110.0679321289063 192.0159759521484 110.1901245117188 193.7992553710938 C 110.3123092651367 195.5825653076172 109.7584838867188 197.3283996582031 108.6306533813477 198.7151489257813 C 107.5028228759766 200.1018981933594 105.906494140625 200.9998626708984 104.1357116699219 201.2436065673828 C 103.8160400390625 201.2876129150391 103.4914093017578 201.3099212646484 103.1709213256836 201.3099212646484 Z M 103.1776733398438 191.0134429931641 L 103.1776733398438 191.5134429931641 C 101.6531600952148 191.5134429931641 100.4125595092773 192.7537536621094 100.4121704101563 194.2782897949219 C 100.411994934082 195.0169982910156 100.6994934082031 195.7115783691406 101.2217102050781 196.2340545654297 C 101.7439193725586 196.7565307617188 102.4383392333984 197.0443725585938 103.1770401000977 197.0445404052734 C 104.7022933959961 197.0445404052734 105.9429244995117 195.8042297363281 105.9433059692383 194.2796630859375 C 105.9436798095703 192.7547607421875 104.703369140625 191.5138397216797 103.1784286499023 191.5134429931641 L 103.1776733398438 191.0134429931641 Z M 77.05982208251953 181.2208251953125 L 77.05979919433594 181.7208251953125 C 75.53524017333984 181.7208251953125 74.29460906982422 182.9611511230469 74.29423522949219 184.4857025146484 C 74.29405212402344 185.2244110107422 74.58155059814453 185.9189605712891 75.103759765625 186.4414367675781 C 75.62598419189453 186.9639129638672 76.32040405273438 187.2517547607422 77.05910491943359 187.2519378662109 C 78.58437347412109 187.2519378662109 79.82498168945313 186.0116424560547 79.82535552978516 184.4870910644531 C 79.82574462890625 182.962158203125 78.58541870117188 181.7212219238281 77.06048583984375 181.7208251953125 L 77.05982208251953 181.2208251953125 Z"/>
        <path class="cls-4" d="M 103.170524597168 200.8099212646484 C 103.4669189453125 200.8099365234375 103.7661361694336 200.7897644042969 104.0675354003906 200.7482757568359 C 107.4684219360352 200.2801361083984 109.9259643554688 197.2583923339844 109.691291809082 193.8334350585938 C 109.4566192626953 190.4085388183594 106.6098785400391 187.750244140625 103.1769256591797 187.7503051757813 C 100.2500686645508 187.7503051757813 97.80152130126953 189.6895751953125 96.97228240966797 192.3438110351563 L 80.32371520996094 192.3438110351563 C 79.45200347900391 192.3409423828125 78.73766326904297 191.6510925292969 78.70439910888672 190.7799987792969 C 81.89205932617188 189.9663543701172 83.97251892089844 186.9033355712891 83.55382537841797 183.6402282714844 C 83.13665771484375 180.3888854980469 80.36858367919922 177.9560089111328 77.09424591064453 177.9560089111328 C 77.08241271972656 177.9560089111328 77.07083129882813 177.9560394287109 77.05898284912109 177.9561004638672 C 74.64797210693359 177.9561004638672 72.56668853759766 179.2766723632813 71.43545532226563 181.2208251953125 L 68.89712524414063 181.2208251953125 C 67.99557495117188 181.2208251953125 67.26473999023438 180.4900054931641 67.26473999023438 179.5884552001953 L 67.26473999023438 164.8971252441406 C 67.26473999023438 163.9955749511719 67.99557495117188 163.2647552490234 68.89712524414063 163.2647552490234 L 79.50754547119141 163.2647552490234 C 80.40906524658203 163.2647552490234 81.13991546630859 162.5339050292969 81.13991546630859 161.6323699951172 C 81.13991546630859 160.7308197021484 80.40906524658203 160 79.50754547119141 160 L 68.89712524414063 160 C 66.1925048828125 160 64 162.1925201416016 64 164.8971252441406 L 64 179.5884552001953 C 64 182.2930603027344 66.1925048828125 184.4855804443359 68.89712524414063 184.4855804443359 L 70.52949523925781 184.4855804443359 C 70.53433990478516 187.4594421386719 72.55292510986328 190.0523834228516 75.43476867675781 190.7865447998047 C 75.47311401367188 193.4599609375 77.65000152587891 195.6077880859375 80.32371520996094 195.6101989746094 L 96.78456115722656 195.6101989746094 C 97.42202758789063 198.6732940673828 100.1224975585938 200.8097076416016 103.170524597168 200.8099212646484 M 103.1776733398438 191.0134429931641 C 103.1780014038086 191.0134429931641 103.1782302856445 191.0134429931641 103.1785659790039 191.0134429931641 C 104.9820709228516 191.0139007568359 106.4437484741211 192.4762878417969 106.4433059692383 194.27978515625 C 106.4428558349609 196.0830078125 104.9808044433594 197.5445404052734 103.177734375 197.5445404052734 C 103.1774063110352 197.5445404052734 103.1772537231445 197.5445404052734 103.1769256591797 197.5445404052734 C 101.3734130859375 197.5441131591797 99.91173553466797 196.0816955566406 99.91217041015625 194.2781677246094 C 99.91263580322266 192.4750061035156 101.3745956420898 191.0134429931641 103.1776733398438 191.0134429931641 M 77.05979919433594 181.2208251953125 C 77.06012725830078 181.2208251953125 77.06027984619141 181.2208251953125 77.06061553955078 181.2208251953125 C 78.8641357421875 181.2212829589844 80.32581329345703 182.6836853027344 80.32535552978516 184.4872131347656 C 80.32491302490234 186.2903900146484 78.86289978027344 187.7519378662109 77.05982971191406 187.7519378662109 C 77.05950164794922 187.7519378662109 77.05931091308594 187.7519378662109 77.05898284912109 187.7519378662109 C 75.25546264648438 187.7514953613281 73.79379272460938 186.2890777587891 73.79423522949219 184.4855804443359 C 73.79468536376953 182.6823883056641 75.25673675537109 181.2208251953125 77.05979919433594 181.2208251953125 M 103.1709594726563 201.8099212646484 L 103.1709594726563 200.8099212646484 L 103.1708297729492 201.8099212646484 C 101.4597244262695 201.8097991943359 99.78166198730469 201.215576171875 98.44538879394531 200.1366882324219 C 97.31092071533203 199.2207641601563 96.46739196777344 197.9891052246094 96.01761627197266 196.6101989746094 L 80.32371520996094 196.6101989746094 C 78.76544952392578 196.6087951660156 77.2972412109375 196.0056304931641 76.18864440917969 194.9118499755859 C 75.25799560546875 193.9936218261719 74.66967010498047 192.8172912597656 74.49156188964844 191.5420837402344 C 71.85408782958984 190.592041015625 69.97052764892578 188.2491302490234 69.59726715087891 185.4855804443359 L 68.89712524414063 185.4855804443359 C 65.64543914794922 185.4855804443359 63.00000381469727 182.8401489257813 63.00000381469727 179.5884552001953 L 63.00000381469727 164.8971252441406 C 63.00000381469727 161.6454467773438 65.64543914794922 159 68.89712524414063 159 L 79.50754547119141 159 C 80.95903015136719 159 82.13991546630859 160.1808929443359 82.13991546630859 161.6323699951172 C 82.13991546630859 163.0838775634766 80.95903015136719 164.2647552490234 79.50754547119141 164.2647552490234 L 68.89712524414063 164.2647552490234 C 68.54842376708984 164.2647552490234 68.26473999023438 164.5484313964844 68.26473999023438 164.8971252441406 L 68.26473999023438 179.5884552001953 C 68.26473999023438 179.9371490478516 68.54842376708984 180.2208251953125 68.89712524414063 180.2208251953125 L 70.88652801513672 180.2208251953125 C 71.50894927978516 179.3184356689453 72.31912994384766 178.5575561523438 73.25588989257813 178.0000762939453 C 74.40316009521484 177.3173065185547 75.71770477294922 176.9563293457031 77.05767059326172 176.9561004638672 L 77.09424591064453 176.9560089111328 C 78.92150115966797 176.9560089111328 80.68360137939453 177.620849609375 82.05595397949219 178.8280181884766 C 83.42880249023438 180.03564453125 84.31301116943359 181.699462890625 84.54569244384766 183.5129699707031 C 84.97222900390625 186.837158203125 83.14009857177734 189.9911193847656 80.17057800292969 191.32373046875 C 80.22054290771484 191.3366851806641 80.27297973632813 191.3436431884766 80.32700347900391 191.3438262939453 L 96.27484893798828 191.3438110351563 C 96.79200744628906 190.1197967529297 97.61544799804688 189.0614471435547 98.68547058105469 188.2536315917969 C 99.9881591796875 187.2701416015625 101.5412826538086 186.7503051757813 103.1769256591797 186.7503051757813 C 105.0915222167969 186.7502746582031 106.9166030883789 187.4698944091797 108.3159637451172 188.7766265869141 C 109.71533203125 190.0833587646484 110.5580749511719 191.8549499511719 110.6889495849609 193.7650756835938 C 110.8198318481445 195.6752319335938 110.2266159057617 197.5452423095703 109.0185623168945 199.0306243896484 C 107.8105087280273 200.5160217285156 106.1006317138672 201.4778442382813 104.2039031982422 201.7389373779297 C 103.861701965332 201.7860412597656 103.5141754150391 201.8099212646484 103.1709594726563 201.8099212646484 Z M 103.1776733398438 191.0134429931641 L 103.1776733398438 192.0134429931641 C 101.9287948608398 192.0134429931641 100.9124908447266 193.0295104980469 100.9121704101563 194.2784271240234 C 100.9120254516602 194.8835754394531 101.1475448608398 195.4525604248047 101.5753555297852 195.8805847167969 C 102.0031509399414 196.3086090087891 102.572021484375 196.5444030761719 103.1771621704102 196.5445404052734 C 104.4266586303711 196.5445404052734 105.4429931640625 195.5284729003906 105.4433059692383 194.279541015625 C 105.4436111450195 193.0303192138672 104.4275436401367 192.0137634277344 103.1782989501953 192.0134429931641 L 103.1776733398438 191.0134429931641 Z M 77.05979919433594 181.2208251953125 L 77.05979919433594 182.2208251953125 C 75.81087493896484 182.2208251953125 74.79454040527344 183.2369079589844 74.79423522949219 184.48583984375 C 74.79408264160156 185.0909729003906 75.02960205078125 185.6599578857422 75.45740509033203 186.0879821777344 C 75.88520050048828 186.5159912109375 76.45407867431641 186.7517852783203 77.05921936035156 186.7519378662109 C 78.30873870849609 186.7519378662109 79.32505035400391 185.7358703613281 79.32535552978516 184.4869689941406 C 79.32567596435547 183.2377319335938 78.30960083007813 182.2211456298828 77.06034851074219 182.2208251953125 L 77.05979919433594 181.2208251953125 Z"/>
      </g>
    </g>
    <rect id="矩形_1837" data-name="矩形 1837" class="cls-2" width="48" height="48" transform="translate(14 159)"/>
  </g>
</svg>
