<svg id="组_4705" data-name="组 4705" xmlns="http://www.w3.org/2000/svg" width="20" height="20" viewBox="0 0 20 20">
  <defs>
    <style>
      .cls-1 {
        fill: #f5a4a4;
        opacity: 0;
      }

      .cls-2, .cls-3 {
        fill: #9ea0a5;
      }

      .cls-2 {
        stroke: #9ea0a5;
        stroke-linejoin: round;
        stroke-width: 0.5px;
      }
    </style>
  </defs>
  <rect id="矩形_1819" data-name="矩形 1819" class="cls-1" width="20" height="20"/>
  <g id="组_4704" data-name="组 4704" transform="translate(1.51 0.354)">
    <path id="路径_3568" data-name="路径 3568" class="cls-2" d="M136.345,44.16,128,48.979v9.652l8.358,4.819,8.358-4.819V48.979Zm7.038,12.913-4.225-2.443a3.446,3.446,0,0,1-.832.858v.185l4.436,2.562L137,61.549V58.328a1.848,1.848,0,0,1-1.32,0v3.222l-5.757-3.314,4.436-2.562v-.185a3.446,3.446,0,0,1-.832-.858l-4.212,2.443v-6.6l3.552,2.02a3.446,3.446,0,0,1,.317-1.32l-3.182-1.822,5.678-3.275v3.169a3.3,3.3,0,0,1,1.32,0V46.061l5.678,3.275-3.2,1.835a3.446,3.446,0,0,1,.317,1.32l3.578-2.06Z" transform="translate(-128 -44.16)"/>
    <path id="路径_3569" data-name="路径 3569" class="cls-3" d="M430.577,350.72a2.152,2.152,0,0,0-.66,4.2v1.769a.66.66,0,0,0,1.32,0v-1.769a2.152,2.152,0,0,0-.66-4.2Zm0,2.984a.346.346,0,1,1,0,.013Z" transform="translate(-422.232 -344.395)"/>
  </g>
</svg>
