<svg xmlns="http://www.w3.org/2000/svg" width="20" height="20" viewBox="0 0 20 20">
  <defs>
    <style>
      .cls-1 {
        fill: #d85e5e;
        opacity: 0;
      }

      .cls-2 {
        fill: none;
        stroke-linejoin: round;
      }

      .cls-3, .cls-5 {
        fill: #9ea0a5;
      }

      .cls-4, .cls-5 {
        stroke: none;
      }
    </style>
  </defs>
  <g id="组_4723" data-name="组 4723" transform="translate(25 -9)">
    <rect id="矩形_1819" data-name="矩形 1819" class="cls-1" width="20" height="20" transform="translate(-25 9)"/>
    <g id="路径_3572" data-name="路径 3572" class="cls-2" transform="translate(-152 -53.4)">
      <path class="cls-4" d="M145.061,66.594a2.237,2.237,0,0,1,1.147,1.864v7.885a1.921,1.921,0,0,1-1.147,1.864l-6.882,3.871a1.95,1.95,0,0,1-2.151,0l-6.882-3.871A2.237,2.237,0,0,1,128,76.343V68.457a1.921,1.921,0,0,1,1.147-1.864l6.882-3.871a1.95,1.95,0,0,1,2.151,0l6.882,3.871Z"/>
      <path class="cls-5" d="M 137.1092224121094 64.41226959228516 C 137.09423828125 64.41797637939453 137.0767211914063 64.42610931396484 137.0576477050781 64.43755340576172 C 137.0416259765625 64.44716644287109 137.0254821777344 64.45655059814453 137.0091857910156 64.46571350097656 L 130.1274719238281 68.33667755126953 C 130.0867462158203 68.35958099365234 130.0452423095703 68.38105010986328 130.0030364990234 68.40103912353516 C 130.0012664794922 68.41632843017578 130 68.43502044677734 130 68.45733642578125 L 130 76.31867980957031 C 130.0131225585938 76.34822845458984 130.0588836669922 76.41696166992188 130.1600494384766 76.48160552978516 L 137.0091857910156 80.33425140380859 C 137.0394897460938 80.35128784179688 137.0693206787109 80.36911010742188 137.0986633300781 80.3876953125 C 137.1136474609375 80.38198852539063 137.1311798095703 80.37384796142578 137.1502532958984 80.36240386962891 C 137.166259765625 80.35279083251953 137.1824188232422 80.34340667724609 137.1986999511719 80.33425140380859 L 144.0804290771484 76.46328735351563 C 144.1211395263672 76.44037628173828 144.1626434326172 76.41891479492188 144.2048492431641 76.39892578125 C 144.2066192626953 76.38363647460938 144.2078857421875 76.36494445800781 144.2078857421875 76.34263610839844 L 144.2078857421875 68.48129272460938 C 144.1947784423828 68.45175170898438 144.1489868164063 68.38298797607422 144.0477600097656 68.31830596923828 L 137.1986999511719 64.46571350097656 C 137.1683959960938 64.44867706298828 137.1385650634766 64.43085479736328 137.1092224121094 64.41226959228516 M 137.1576995849609 62.39998626708984 C 137.5340423583984 62.39998626708984 137.8924713134766 62.50751495361328 138.1792144775391 62.72256469726563 L 145.0609436035156 66.59352111816406 L 145.0609436035156 66.59353637695313 C 145.7777862548828 67.02364349365234 146.2078857421875 67.74048614501953 146.2078857421875 68.45733642578125 L 146.2078857421875 76.34263610839844 C 146.2078857421875 77.20285034179688 145.7777862548828 77.91970062255859 145.0609436035156 78.20643615722656 L 138.1792144775391 82.07740783691406 C 137.8207855224609 82.29245758056641 137.426513671875 82.39998626708984 137.0501708984375 82.39998626708984 C 136.673828125 82.39998626708984 136.3154144287109 82.29245758056641 136.0286712646484 82.07740783691406 L 129.1469573974609 78.20643615722656 C 128.4301147460938 77.77633666992188 128 77.05948638916016 128 76.34263610839844 L 128 68.45733642578125 C 128 67.59712219238281 128.4301147460938 66.88026428222656 129.1469573974609 66.59352111816406 L 136.0286712646484 62.72256469726563 C 136.3871002197266 62.50751495361328 136.7813568115234 62.39998626708984 137.1576995849609 62.39998626708984 Z"/>
    </g>
    <path id="路径_3571" data-name="路径 3571" class="cls-3" d="M137.749,79.043l5.364-2.961a.788.788,0,0,0,.43-.717V69.654l-5.364,2.961a.527.527,0,0,1-.43.143v6.285Z" transform="translate(-152 -53.4)"/>
  </g>
</svg>
