<svg xmlns="http://www.w3.org/2000/svg" width="20" height="20" viewBox="0 0 20 20">
  <defs>
    <style>
      .cls-1 {
        fill: #cecfd2;
      }
    </style>
  </defs>
  <path id="Icon" class="cls-1" d="M9.007,20V9.832L7.715,11.124,6.3,9.711,10.006,6l3.7,3.706L12.3,11.124,11.006,9.832V20Zm4-6V12h.154c.459,0,.857.01,1.21.01a5.866,5.866,0,0,0,1.376-.117l.011,0h0a2.906,2.906,0,0,0,.97-.441A3.009,3.009,0,0,0,16.4,6.342,2.959,2.959,0,0,0,14.9,6.016a4.659,4.659,0,0,0-3.8-3.868C7.866,1.539,3.992,3.969,5.2,8.3l.005.018q.018.064.037.128a1.863,1.863,0,0,0-1.695-.4C1.684,8.557.757,12,5.116,12H7.008v2h-2.8A4.121,4.121,0,0,1,0,9.986,3.9,3.9,0,0,1,.732,7.723,4.3,4.3,0,0,1,3.075,6.1,6.925,6.925,0,0,1,6.5.957l0,0L6.534.937h0L6.566.919l.006,0L6.6.9l.009,0L6.63.884,6.647.874,6.664.865l.019-.01L6.7.847,6.717.836,6.731.829,6.757.815l0,0L6.793.8h0A7.058,7.058,0,0,1,9.991,0h.086A6.881,6.881,0,0,1,13.89,1.185a7.259,7.259,0,0,1,2.558,3.057l.049.015.012,0,.038.012.011,0,.041.013.008,0A4.972,4.972,0,0,1,19.9,10v.006l-.005.025,0,.011-.01.044,0,.009,0,.019,0,.016,0,.018,0,.02,0,.014-.018.072,0,.006-.008.031,0,.008q-.016.057-.033.113h0a4.863,4.863,0,0,1-1.44,2.226l-.006.005-.026.023-.007.007-.032.028a5.374,5.374,0,0,1-1.026.7l-.009,0-.029.015a6.4,6.4,0,0,1-3.044.587C13.785,14.013,13.4,14,13,14Z"/>
</svg>
