<svg xmlns="http://www.w3.org/2000/svg" width="24" height="24" viewBox="0 0 24 24">
  <defs>
    <style>
      .cls-1, .cls-2 {
        fill: #fff;
      }

      .cls-2 {
        opacity: 0;
      }
    </style>
  </defs>
  <g id="组_4759" data-name="组 4759" transform="translate(-21 -476)">
    <path id="路径_3501" data-name="路径 3501" class="cls-1" d="M139.7,84.464l7.742-4.473a.946.946,0,0,0,.516-.86V70.185l-7.742,4.473a.632.632,0,0,1-.516.172v9.634Zm8.774-17.032a2.685,2.685,0,0,1,1.376,2.237v9.462a2.305,2.305,0,0,1-1.376,2.237l-8.258,4.645a2.34,2.34,0,0,1-2.581,0l-8.258-4.645A2.685,2.685,0,0,1,128,79.131V69.669a2.305,2.305,0,0,1,1.376-2.237l8.258-4.645a2.34,2.34,0,0,1,2.581,0l8.258,4.645Z" transform="translate(-106 413.6)"/>
    <path id="路径_3590" data-name="路径 3590" class="cls-2" d="M140.85,84.464l8.5-4.473a.938.938,0,0,0,.567-.86V70.185l-8.5,4.473a.739.739,0,0,1-.567.172v9.634Zm9.638-17.032A2.663,2.663,0,0,1,152,69.669v9.462a2.3,2.3,0,0,1-1.512,2.237l-9.071,4.645a2.783,2.783,0,0,1-2.835,0l-9.071-4.645A2.663,2.663,0,0,1,128,79.131V69.669a2.3,2.3,0,0,1,1.512-2.237l9.071-4.645a2.783,2.783,0,0,1,2.835,0l9.071,4.645Z" transform="translate(-107 413.6)"/>
  </g>
</svg>
