<svg xmlns="http://www.w3.org/2000/svg" xmlns:xlink="http://www.w3.org/1999/xlink" width="16" height="16" viewBox="0 0 16 16">
  <defs>
    <style>
      .cls-1, .cls-3 {
        fill: #4d7cfe;
      }

      .cls-1 {
        opacity: 0.15;
      }

      .cls-2 {
        clip-path: url(#clip-path);
      }
    </style>
    <clipPath id="clip-path">
      <rect id="矩形_671" data-name="矩形 671" class="cls-1" width="16" height="16" transform="translate(304 257)"/>
    </clipPath>
  </defs>
  <g id="蒙版组_12" data-name="蒙版组 12" class="cls-2" transform="translate(-304 -257)">
    <g id="授权_1_" data-name="授权 (1)" transform="translate(303.801 256.805)">
      <path id="路径_341" data-name="路径 341" class="cls-3" d="M8.037,16.163h0A8.448,8.448,0,0,1,1.4,7.923V2.485h.732A10.584,10.584,0,0,0,7.8.474L8.2.2l.4.279a10.593,10.593,0,0,0,5.688,2.011H15V7.923a8.446,8.446,0,0,1-6.636,8.24l-.141.032ZM2.226,7.923A7.624,7.624,0,0,0,8.2,15.351a7.623,7.623,0,0,0,5.975-7.428l0-4.614a11.42,11.42,0,0,1-5.97-2.1,11.411,11.411,0,0,1-5.976,2.1V7.923Z"/>
      <path id="路径_342" data-name="路径 342" class="cls-3" d="M7.39,10.855A.383.383,0,0,1,7.1,10.73L4.429,7.891a.386.386,0,0,1-.1-.28.381.381,0,0,1,.125-.269l.069-.062a.389.389,0,0,1,.263-.1.383.383,0,0,1,.285.125L7.394,9.772l3.95-4.1a.387.387,0,0,1,.277-.117.392.392,0,0,1,.272.111l.066.066a.389.389,0,0,1,0,.55L7.656,10.751l0,0a.382.382,0,0,1-.263.1Z"/>
    </g>
  </g>
</svg>
