<svg xmlns="http://www.w3.org/2000/svg" width="20" height="20" viewBox="0 0 20 20">
  <defs>
    <style>
      .cls-1 {
        fill: #fff;
      }
    </style>
  </defs>
  <path id="Icon" class="cls-1" d="M238,1115.667H222a2.119,2.119,0,0,0-2,2.222v8.889a2.12,2.12,0,0,0,2,2.222h16a2.12,2.12,0,0,0,2-2.222v-8.889A2.119,2.119,0,0,0,238,1115.667Zm-14.343,2.222L222,1119.73C222,1117.92,222.384,1117.889,223.657,1117.889ZM222,1124.937l1.657,1.841C222.03,1126.778,222,1126.356,222,1124.937Zm4.485,1.841-4-4.444,4-4.444h7.03l4,4.444-4,4.444Zm9.858,0,1.657-1.841C238,1126.744,237.62,1126.778,236.343,1126.778ZM238,1119.73l-1.657-1.841C237.972,1117.889,238,1118.316,238,1119.73Zm-6,2.6a2.011,2.011,0,1,1-2-2.222A2.119,2.119,0,0,1,232,1122.333Zm-10-10v-1.111a2.119,2.119,0,0,1,2-2.222h12a2.119,2.119,0,0,1,2,2.222v1.111a1.006,1.006,0,1,1-2,0,1.06,1.06,0,0,0-1-1.111H225a1.06,1.06,0,0,0-1,1.111,1.006,1.006,0,1,1-2,0Z" transform="translate(-220 -1109)"/>
</svg>
