<?xml version="1.0" standalone="no"?><!DOCTYPE svg PUBLIC "-//W3C//DTD SVG 1.1//EN" "http://www.w3.org/Graphics/SVG/1.1/DTD/svg11.dtd"><svg t="1566786771786" class="icon" viewBox="0 0 1024 1024" version="1.1" xmlns="http://www.w3.org/2000/svg" p-id="3143" xmlns:xlink="http://www.w3.org/1999/xlink" width="200" height="200"><defs><style type="text/css"></style></defs><path d="M824.08 0.016c-0.034 0-0.048-0.016-0.08-0.016H200C164.704 0 136 28.72 136 64v896h32c0-17.648 14.352-32 32-32h623.984c35.25 0 63.89-28.626 63.984-63.844 0-0.062 0.032-0.094 0.032-0.156V64C887.984 28.734 859.328 0.062 824.08 0.016z m0 0" fill="#FFD2A6" p-id="3144"></path><path d="M823.984 928H200c-17.648 0-32 14.352-32 32H136c0 35.296 28.704 64 64 64h640c5.586 0 10.242-3.008 13.1-7.328 20.564-10.626 34.806-31.82 34.868-56.516 0-0.062 0.032-0.094 0.032-0.156v-96c0 0.062-0.032 0.094-0.032 0.156-0.092 35.22-28.734 63.844-63.984 63.844z m0 0" fill="#F7C292" p-id="3145"></path><path d="M824.08 0.016c-0.034 0-0.048-0.016-0.08-0.016H200C164.704 0 136 28.72 136 64v896h32c0-17.648 14.352-32 32-32h623.984c35.25 0 63.89-28.626 63.984-63.844 0-0.062 0.032-0.094 0.032-0.156V64C887.984 28.734 859.328 0.062 824.08 0.016z m0 0" fill="#FFD2A6" p-id="3146"></path><path d="M823.984 928H200c-17.648 0-32 14.352-32 32H136c0 35.296 28.704 64 64 64h640c5.586 0 10.242-3.008 13.1-7.328 20.564-10.626 34.806-31.82 34.868-56.516 0-0.062 0.032-0.094 0.032-0.156v-96c0 0.062-0.032 0.094-0.032 0.156-0.092 35.22-28.734 63.844-63.984 63.844z m0 0" fill="#F7C292" p-id="3147"></path><path d="M200 992h624v-64H200c-17.648 0-32 14.352-32 32s14.352 32 32 32z m0 0" fill="#F5F7FA" p-id="3148"></path><path d="M264 0H200C164.704 0 136 28.72 136 64v896h32c0-17.648 14.352-32 32-32h64z m0 0" fill="#965353" p-id="3149"></path><path d="M824 944H200c-8.852 0-16 7.148-16 16s7.148 16 16 16h624z m0 0" fill="#E6E9ED" p-id="3150"></path><path d="M676.476 517.438v0.164C648 543.84 609.922 560 568 560c-42.08 0-80.476-16.32-108.96-42.882 9.264-37.61 37.6-67.532 74.24-79.376C543.36 444.156 555.206 448 568 448c12.64 0 24.476-3.68 34.562-10.08 36.478 12 64.478 41.924 73.914 79.518z m0 0" fill="#5D9CEC" p-id="3151"></path><path d="M568 240c88.32 0 160 71.68 160 160 0 46.4-19.844 88.32-51.524 117.438-9.436-37.594-37.436-67.516-73.914-79.516C620.304 426.398 632 406.56 632 384c0-35.36-28.64-64-64-64s-64 28.64-64 64c0 22.562 11.68 42.4 29.28 53.742-36.64 11.844-64.976 41.766-74.24 79.376C427.68 487.844 408 446.24 408 400c0-88.32 71.68-160 160-160z m0 0" fill="#656D78" p-id="3152"></path><path d="M952 160v64c0 17.6-14.4 32-32 32h-32V128h32c17.6 0 32 14.4 32 32z m0 0M952 352v64c0 17.6-14.4 32-32 32h-32v-128h32c17.6 0 32 14.4 32 32z m0 0M952 544v64c0 17.6-14.4 32-32 32h-32v-128h32c17.6 0 32 14.4 32 32z m0 0" fill="#5D9CEC" p-id="3153"></path><path d="M168 112c17.6 0 32 14.4 32 32 0 17.742-14.4 32-32 32H104C86.4 176 72 161.742 72 144c0-17.6 14.4-32 32-32z m0 0M168 752c17.6 0 32 14.4 32 32 0 17.742-14.4 32-32 32H104c-17.6 0-32-14.258-32-32 0-17.6 14.4-32 32-32z m0 0M168 592c17.6 0 32 14.4 32 32 0 17.742-14.4 32-32 32H104c-17.6 0-32-14.258-32-32 0-17.6 14.4-32 32-32z m0 0M168 432c17.6 0 32 14.4 32 32 0 17.742-14.4 32-32 32H104c-17.6 0-32-14.258-32-32 0-17.6 14.4-32 32-32z m0 0M168 272c17.6 0 32 14.4 32 32 0 17.742-14.4 32-32 32H104c-17.6 0-32-14.258-32-32 0-17.6 14.4-32 32-32z m0 0" fill="#E6E9ED" p-id="3154"></path><path d="M712 656H424c-8.852 0-16-7.148-16-16s7.148-16 16-16h288c8.852 0 16 7.148 16 16s-7.148 16-16 16z m0 0M648 720h-160c-8.852 0-16-7.148-16-16s7.148-16 16-16h160c8.852 0 16 7.148 16 16s-7.148 16-16 16z m0 0" fill="#EAB081" p-id="3155"></path><path d="M648 384c0 28.21-14.626 53.008-36.812 67.406-12.58 8-27.4 12.594-43.188 12.594-15.984 0-30.796-4.812-43.406-12.812C502.626 437.008 488 412.21 488 384c0-44.21 35.79-80 80-80s80 35.79 80 80z m0 0" fill="#EAC6BB" p-id="3156"></path></svg>