<svg id="组_4678" data-name="组 4678" xmlns="http://www.w3.org/2000/svg" width="20" height="20" viewBox="0 0 20 20">
  <defs>
    <style>
      .cls-1 {
        fill: #c52c2c;
        opacity: 0;
      }

      .cls-2 {
        fill: #9ea0a5;
        stroke: #9ea0a5;
      }
    </style>
  </defs>
  <rect id="矩形_1819" data-name="矩形 1819" class="cls-1" width="20" height="20"/>
  <g id="组_4677" data-name="组 4677" transform="translate(0.243 0.726)">
    <path id="联合_16" data-name="联合 16" class="cls-2" d="M4729.225,19806.988a.465.465,0,0,1-.467-.467v-7.182a.473.473,0,0,1,.348-.482,10.873,10.873,0,0,1,4.1-.756c4.111,0,7.369,2.033,8.7,5.145h2.759a1.874,1.874,0,0,0,1.874-1.869v-7.486a1.875,1.875,0,0,0-1.874-1.873h-7.074a4.444,4.444,0,1,1-.256-.936h7.331a2.812,2.812,0,0,1,2.809,2.809v7.486a2.81,2.81,0,0,1-2.809,2.8h-2.426a8.442,8.442,0,0,1,.324,2.342.47.47,0,0,1-.472.467Zm12.387-.934c-.238-4.16-3.628-7.02-8.411-7.02a10.072,10.072,0,0,0-3.509.6v6.42Zm-11.92-13.338a3.509,3.509,0,1,0,3.509-3.508A3.512,3.512,0,0,0,4729.692,19792.717Zm9.827,5.385a.47.47,0,0,1,0-.939h4.21a.47.47,0,0,1,0,.939Zm1.636-2.809a.468.468,0,0,1,0-.936h2.575a.468.468,0,0,1,0,.936Z" transform="translate(-4728.441 -19788.273)"/>
  </g>
</svg>
