<svg xmlns="http://www.w3.org/2000/svg" width="20" height="20" viewBox="0 0 20 20">
  <defs>
    <style>
      .cls-1 {
        fill: #9ea0a5;
      }
    </style>
  </defs>
  <path id="Icon" class="cls-1" d="M16.124,20a1,1,0,1,1,0-2h.438a1.02,1.02,0,0,0,1.031-.992.91.91,0,0,0-.071-.347A7.834,7.834,0,0,0,10,12a7.835,7.835,0,0,0-7.523,4.662.91.91,0,0,0-.071.347A1.021,1.021,0,0,0,3.437,18h.438a1,1,0,1,1,0,2H2.053A2.025,2.025,0,0,1,0,18.032a1.864,1.864,0,0,1,.045-.4,9.517,9.517,0,0,1,6.119-6.963A5.938,5.938,0,0,1,3.875,6V5.961A5.876,5.876,0,0,1,4.4,3.573a6.161,6.161,0,0,1,11.657,1.5,6.113,6.113,0,0,1,.072.941,5.934,5.934,0,0,1-2.289,4.662,9.52,9.52,0,0,1,6.12,6.963,1.864,1.864,0,0,1,.044.4A2.026,2.026,0,0,1,17.946,20ZM10,10a4.047,4.047,0,0,0,4.083-4A4.084,4.084,0,0,0,5.916,6,4.047,4.047,0,0,0,10,10ZM7.835,17.879a.985.985,0,0,1,0-1.415,1.037,1.037,0,0,1,1.444,0l.721.707,1.743-1.707a1.036,1.036,0,0,1,1.443,0,.986.986,0,0,1,0,1.415L10,20Z"/>
</svg>
