<svg xmlns="http://www.w3.org/2000/svg" width="20" height="20" viewBox="0 0 20 20">
  <defs>
    <style>
      .cls-1 {
        fill: #9ea0a5;
      }
    </style>
  </defs>
  <g id="Tag" transform="translate(35 -17)">
    <path id="Icon" class="cls-1" d="M611,197h2v-4h-2Zm12-4.005v6a1.008,1.008,0,0,1-1,1.01h-2c0-1-.448-1.005-1-1.005a1,1,0,0,0-1,.995v2A1,1,0,0,0,619,203c.552,0,1,0,1-.995h3a2.008,2.008,0,0,0,2-2.01v-7ZM628,191v-4a2,2,0,0,0-2-2h-4a2,2,0,0,0-2,2v4a2,2,0,0,0,2,2h4A2,2,0,0,0,628,191Zm-2-1a1,1,0,0,1-1,1h-2a1,1,0,0,1-1-1v-2a1,1,0,0,1,1-1h2a1,1,0,0,1,1,1Zm-10,13v-4a2,2,0,0,0-2-2h-4a2,2,0,0,0-2,2v4a2,2,0,0,0,2,2h4A2,2,0,0,0,616,203Zm-2-1a1,1,0,0,1-1,1h-2a1,1,0,0,1-1-1v-2a1,1,0,0,1,1-1h2a1,1,0,0,1,1,1Zm2-11v-4a2,2,0,0,0-2-2h-4a2,2,0,0,0-2,2v4a2,2,0,0,0,2,2h4A2,2,0,0,0,616,191Zm-2-1a1,1,0,0,1-1,1h-2a1,1,0,0,1-1-1v-2a1,1,0,0,1,1-1h2a1,1,0,0,1,1,1Z" transform="translate(-643 -168)"/>
  </g>
</svg>
