<svg xmlns="http://www.w3.org/2000/svg" width="20" height="20" viewBox="0 0 20 20">
  <defs>
    <style>
      .cls-1 {
        fill: #9ea0a5;
      }
    </style>
  </defs>
  <g id="组_4696" data-name="组 4696" transform="translate(1 1.999)">
    <path id="Op_component_1" data-name="Op component 1" class="cls-1" d="M1180.946,205h-1.821a1,1,0,1,1,0-2h.438a1,1,0,0,0,.961-1.338,8.4,8.4,0,0,0-15.046,0,.994.994,0,0,0,.96,1.338h.438a1,1,0,1,1,0,2h-1.822a2,2,0,0,1-2.01-2.364,9.519,9.519,0,0,1,6.12-6.963,5.937,5.937,0,0,1-2.288-4.673,6.136,6.136,0,0,1,12.178-.93,5.931,5.931,0,0,1-2.217,5.6,9.519,9.519,0,0,1,6.12,6.963,2,2,0,0,1-2.01,2.364m-3.863-14a4.084,4.084,0,1,0-4.083,4,4.046,4.046,0,0,0,4.083-4" transform="translate(-1164 -186.999)"/>
    <path id="Op_component_1-2" data-name="Op component 1" class="cls-1" d="M1175.063,201.4a.986.986,0,0,1,0,1.415L1173,205l-2.165-2.121a.986.986,0,0,1,0-1.415,1.037,1.037,0,0,1,1.443,0l.722.708.619-.774a1.037,1.037,0,0,1,1.443,0" transform="translate(-1164 -188.105)"/>
    <path id="Op_component_1-3" data-name="Op component 1" class="cls-1" d="M1175.063,204.707a.987.987,0,0,0,0-1.415L1173,201.105l-2.165,2.121a.986.986,0,0,0,0,1.415,1.037,1.037,0,0,0,1.443,0l.722-.708.619.774a1.037,1.037,0,0,0,1.443,0" transform="translate(-1164 -186.999)"/>
  </g>
</svg>
