<svg id="删除-黑_16px" data-name="删除-黑@16px" xmlns="http://www.w3.org/2000/svg" width="16" height="16" viewBox="0 0 16 16">
  <defs>
    <style>
      .cls-1 {
        fill: #e4e4e4;
      }
    </style>
  </defs>
  <path id="错误警告-黑_12px" data-name="错误警告-黑@12px" class="cls-1" d="M8,16a8,8,0,1,1,8-8A8.009,8.009,0,0,1,8,16ZM8,8.7H8l3.065,3a.5.5,0,0,0,.708-.008.5.5,0,0,0-.008-.708L8.715,8l3.05-2.987a.5.5,0,1,0-.7-.715L8,7.3l-3.065-3a.5.5,0,0,0-.7.716L7.285,8l-3.05,2.988a.5.5,0,1,0,.7.715L8,8.7Z"/>
</svg>
