<svg xmlns="http://www.w3.org/2000/svg" xmlns:xlink="http://www.w3.org/1999/xlink" width="16" height="16" viewBox="0 0 16 16">
  <defs>
    <style>
      .cls-1, .cls-3 {
        fill: #4d7cfe;
      }

      .cls-1 {
        opacity: 0.15;
      }

      .cls-2 {
        clip-path: url(#clip-path);
      }
    </style>
    <clipPath id="clip-path">
      <rect id="矩形_672" data-name="矩形 672" class="cls-1" width="16" height="16" transform="translate(304 257)"/>
    </clipPath>
  </defs>
  <g id="蒙版组_10" data-name="蒙版组 10" class="cls-2" transform="translate(-304 -257)">
    <path id="删_除_1_1_" data-name="删 除 (1) (1)" class="cls-3" d="M12.488,13.663a.976.976,0,0,1-.974.975H4.488a.976.976,0,0,1-.975-.975V3.313h8.975v10.35ZM5.463,1.563a.2.2,0,0,1,.2-.2H10.35a.2.2,0,0,1,.2.2V2.15H5.463Zm9.95.588h-3.7V1.563A1.366,1.366,0,0,0,10.35.2H5.662A1.365,1.365,0,0,0,4.3,1.562V2.15H.587a.587.587,0,1,0,0,1.175h1.75V13.662a2.15,2.15,0,0,0,2.15,2.15h7.025a2.15,2.15,0,0,0,2.15-2.15V3.313h1.75A.587.587,0,0,0,16,2.725a.576.576,0,0,0-.587-.575ZM8,12.875a.587.587,0,0,0,.587-.587V6.038a.588.588,0,0,0-1.175,0v6.25A.587.587,0,0,0,8,12.875m-2.737,0a.587.587,0,0,0,.588-.587V6.038a.588.588,0,0,0-1.175,0v6.25a.6.6,0,0,0,.588.587m5.475,0a.587.587,0,0,0,.588-.587V6.038a.588.588,0,0,0-1.175,0v6.25a.587.587,0,0,0,.587.587" transform="translate(304 256.994)"/>
  </g>
</svg>
