<svg xmlns="http://www.w3.org/2000/svg" width="20" height="20.001" viewBox="0 0 20 20.001">
  <defs>
    <style>
      .cls-1 {
        fill: #fff;
        stroke: #707070;
        opacity: 0;
      }

      .cls-2 {
        fill: #9ea0a5;
      }

      .cls-3 {
        stroke: none;
      }

      .cls-4 {
        fill: none;
      }
    </style>
  </defs>
  <g id="组_4668" data-name="组 4668" transform="translate(1 0)">
    <g id="组_4667" data-name="组 4667">
      <g id="矩形_1819" data-name="矩形 1819" class="cls-1" transform="translate(-1 0.001)">
        <rect class="cls-3" width="20" height="20"/>
        <rect class="cls-4" x="0.5" y="0.5" width="19" height="19"/>
      </g>
      <g id="组_4484" data-name="组 4484" transform="translate(0 0)">
        <path id="路径_3491" data-name="路径 3491" class="cls-2" d="M138.586,73.551a3.631,3.631,0,0,1-2.572-1.061c-1.141-1.138-2.714-2.738-3.722-3.9a9.381,9.381,0,0,1-2.542-6.2,8.835,8.835,0,0,1,8.841-8.841,7.457,7.457,0,0,1,5.068,1.607,1.263,1.263,0,1,1-1.667,1.9,5.066,5.066,0,0,0-3.4-.979,6.321,6.321,0,0,0-6.314,6.314,6.943,6.943,0,0,0,1.924,4.544c.959,1.105,2.486,2.658,3.6,3.766a1.118,1.118,0,0,0,1.578,0c1.633-1.634,2.761-2.822,3.262-3.435,1.121-1.374,2.267-3.028,2.267-4.873a4.214,4.214,0,0,0-.292-2.056,1.263,1.263,0,1,1,2.044-1.484,5.867,5.867,0,0,1,.775,3.54,7.991,7.991,0,0,1-.955,3.694,15.9,15.9,0,0,1-1.881,2.775c-.561.688-1.716,1.907-3.433,3.625A3.631,3.631,0,0,1,138.586,73.551Z" transform="translate(-129.75 -53.55)"/>
        <path id="路径_3492" data-name="路径 3492" class="cls-2" d="M356.213,287.035a3.663,3.663,0,1,1,3.663-3.663A3.666,3.666,0,0,1,356.213,287.035Zm0-5.052a1.389,1.389,0,1,0,1.39,1.389A1.389,1.389,0,0,0,356.213,281.983Z" transform="translate(-347.397 -274.479)"/>
      </g>
    </g>
  </g>
</svg>
