<svg xmlns="http://www.w3.org/2000/svg" width="24" height="24" viewBox="0 0 24 24">
  <defs>
    <style>
      .cls-1 {
        fill: #fff;
      }

      .cls-2 {
        fill: #1c6ce1;
      }
    </style>
  </defs>
  <g id="组_4581" data-name="组 4581" transform="translate(0 -0.096)">
    <rect id="Base" class="cls-1" width="24" height="24" rx="12" transform="translate(0 0.096)"/>
    <path id="路径_3513" data-name="路径 3513" class="cls-2" d="M170.618,68.772a2.376,2.376,0,0,1-.154.4h0l-.009.015c-.446.958-1.613,2.836-1.613,2.836a.07.07,0,0,0-.006-.011l-.341.594h1.643L167,76.782l.712-2.844H166.42l.449-1.88c-.363.088-.793.209-1.3.372,0,0-.688.4-1.983-.777,0,0-.873-.77-.366-.963a15.107,15.107,0,0,1,1.7-.274c.882-.119,1.426-.183,1.426-.183s-2.721.041-3.366-.061-1.464-1.18-1.639-2.129c0,0-.27-.52.58-.274s4.367.96,4.367.96a40.591,40.591,0,0,1-4.879-1.747,5.386,5.386,0,0,1-.819-2.81.206.206,0,0,1,.273-.171s3.382,1.548,5.695,2.4S170.877,67.675,170.618,68.772Z" transform="translate(-153.61 -58.395)"/>
  </g>
</svg>
