<svg xmlns="http://www.w3.org/2000/svg" width="20" height="20" viewBox="0 0 20 20">
  <defs>
    <style>
      .cls-1 {
        fill: #9ea0a5;
      }

      .cls-2 {
        fill: #fff;
        stroke: #707070;
        opacity: 0;
      }

      .cls-3 {
        stroke: none;
      }

      .cls-4 {
        fill: none;
      }
    </style>
  </defs>
  <g id="组_4670" data-name="组 4670" transform="translate(0 -1.102)">
    <path id="路径_3493" data-name="路径 3493" class="cls-1" d="M157.53,216.814H144.15a2.153,2.153,0,0,1-2.15-2.15v-1.672a1.195,1.195,0,1,1,2.389,0v1.434h12.9v-1.434a1.195,1.195,0,0,1,2.389,0v1.672A2.153,2.153,0,0,1,157.53,216.814Zm2.15-10.991V204.15a2.153,2.153,0,0,0-2.15-2.15H144.15a2.153,2.153,0,0,0-2.15,2.15v1.672a1.195,1.195,0,1,0,2.389,0v-1.434h12.9v1.434a1.195,1.195,0,0,0,2.389,0Zm-15.172,2.27a1.314,1.314,0,1,0,1.314,1.314A1.314,1.314,0,0,0,144.509,208.093Zm4.221,0a1.314,1.314,0,1,0,1.314,1.314A1.314,1.314,0,0,0,148.73,208.093Zm8.442,0a1.314,1.314,0,1,0,1.314,1.314A1.314,1.314,0,0,0,157.172,208.093Zm-4.221,0a1.314,1.314,0,1,0,1.314,1.314A1.314,1.314,0,0,0,152.951,208.093Z" transform="translate(-141 -197.898)"/>
    <g id="矩形_1833" data-name="矩形 1833" class="cls-2" transform="translate(0 1.102)">
      <rect class="cls-3" width="20" height="20"/>
      <rect class="cls-4" x="0.5" y="0.5" width="19" height="19"/>
    </g>
  </g>
</svg>
