<svg xmlns="http://www.w3.org/2000/svg" width="20" height="20.3" viewBox="0 0 20 20.3">
  <defs>
    <style>
      .cls-1 {
        fill: #fff;
        stroke: #707070;
        opacity: 0;
      }

      .cls-2 {
        fill: #9ea0a5;
        stroke: #9ea0a5;
        stroke-width: 0.3px;
      }

      .cls-3 {
        stroke: none;
      }

      .cls-4 {
        fill: none;
      }
    </style>
  </defs>
  <g id="组_4673" data-name="组 4673" transform="translate(0 -0.85)">
    <g id="矩形_1819" data-name="矩形 1819" class="cls-1" transform="translate(0 1)">
      <rect class="cls-3" width="20" height="19.796"/>
      <rect class="cls-4" x="0.5" y="0.5" width="19" height="18.796"/>
    </g>
    <g id="组_4593" data-name="组 4593" transform="translate(2 1)">
      <path id="路径_3520" data-name="路径 3520" class="cls-2" d="M256.667,257.333H266A.667.667,0,1,0,266,256h-9.333a.667.667,0,1,0,0,1.333Zm0,4.667H266a.667.667,0,0,0,0-1.333h-9.333a.667.667,0,1,0,0,1.333ZM262,265.333h-5.333a.667.667,0,1,0,0,1.333H262a.667.667,0,0,0,0-1.333Z" transform="translate(-253.333 -251.333)"/>
      <path id="路径_3521" data-name="路径 3521" class="cls-2" d="M144,34.1a2.086,2.086,0,0,0-2.064-2.1H130.063A2.086,2.086,0,0,0,128,34.1V49.9a2.086,2.086,0,0,0,2.063,2.1h9.063a.608.608,0,0,0,.092-.019.655.655,0,0,0,.541-.136l4-3.333a.655.655,0,0,0,.225-.567.522.522,0,0,0,.015-.071ZM129.333,49.9V34.1a.751.751,0,0,1,.73-.769h11.873a.751.751,0,0,1,.731.769V46.667h-2a2,2,0,0,0-2,2v2h-8.6A.751.751,0,0,1,129.333,49.9ZM142.292,48,140,49.91V48.667a.667.667,0,0,1,.667-.667Z" transform="translate(-128 -32)"/>
    </g>
  </g>
</svg>
