<svg id="组_4585" data-name="组 4585" xmlns="http://www.w3.org/2000/svg" width="24" height="24" viewBox="0 0 24 24">
  <defs>
    <style>
      .cls-1 {
        fill: #fff;
      }

      .cls-2 {
        fill: #1c6ce1;
      }
    </style>
  </defs>
  <rect id="Base" class="cls-1" width="24" height="24" rx="12"/>
  <path id="路径_3511" data-name="路径 3511" class="cls-2" d="M86.39,42.7a4.576,4.576,0,0,0-1.278-2.556,1.558,1.558,0,0,0-.355-1.527V38.58a3.559,3.559,0,1,0-7.1,0v.036a1.558,1.558,0,0,0-.355,1.527A4.576,4.576,0,0,0,76.022,42.7a1.953,1.953,0,0,0,.178.923c.178.249.675-.036.994-.781a4.623,4.623,0,0,0,.817,1.527,1.036,1.036,0,0,0-.781,1.491,1.608,1.608,0,0,0,1.456.568,3.358,3.358,0,0,0,2.308-.639.3.3,0,0,1,.249-.071.513.513,0,0,1,.249.071,3.281,3.281,0,0,0,2.308.639,1.653,1.653,0,0,0,1.456-.568,1.062,1.062,0,0,0-.781-1.491,5.422,5.422,0,0,0,.817-1.527c.355.746.817,1.03.994.781a2.541,2.541,0,0,0,.107-.923Zm0,0" transform="translate(-69.211 -28.87)"/>
</svg>
