<?xml version="1.0" standalone="no"?><!DOCTYPE svg PUBLIC "-//W3C//DTD SVG 1.1//EN" "http://www.w3.org/Graphics/SVG/1.1/DTD/svg11.dtd"><svg t="1571559320869" class="icon" viewBox="0 0 1024 1024" version="1.1" xmlns="http://www.w3.org/2000/svg" p-id="2168" width="24" height="24" xmlns:xlink="http://www.w3.org/1999/xlink"><defs><style type="text/css"></style></defs><path d="M234.668159 365.659027c0 0-41.244356 17.509792-29.996175 116.235304 0 0-78.739319 71.239508-97.486288 179.977048 0 0-10.012028 183.725418 89.9875 22.496363 0 0 22.497387 61.229526 63.741743 116.235304 0 0-73.752748 25.007557-67.491137 89.9875 0 0-2.512217 72.478731 157.479661 67.490114 0 0 112.484887-8.735965 146.230456-56.241932l14.998599 0L512.132518 65.695235C512.132518 65.695235 243.404124 56.95927 234.668159 365.659027z" p-id="2169" fill="#1461D2"></path><path d="M789.331841 365.659027c0 0 41.24538 17.509792 29.996175 116.235304 0 0 78.740342 71.239508 97.488335 179.977048 0 0 9.974166 183.725418-89.988524 22.496363 0 0-22.496363 61.229526-63.741743 116.235304 0 0 73.716932 25.007557 67.49216 89.9875 0 0 2.475378 72.478731-157.480684 67.490114 0 0-112.485911-8.735965-146.230456-56.241932l-14.997576 0L511.869528 65.695235C511.868505 65.695235 780.559037 56.95927 789.331841 365.659027z" p-id="2170" fill="#1461D2"></path></svg>