<svg xmlns="http://www.w3.org/2000/svg" xmlns:xlink="http://www.w3.org/1999/xlink" width="20" height="20" viewBox="0 0 20 20">
  <defs>
    <style>
      .cls-1 {
        fill: #fff;
        stroke: #707070;
        opacity: 0;
      }

      .cls-2 {
        stroke-linejoin: round;
        fill: url(#linear-gradient);
      }

      .cls-3 {
        fill: #cecfd2;
      }

      .cls-4, .cls-6 {
        stroke: none;
      }

      .cls-5 {
        fill: none;
      }

      .cls-6 {
        fill: #2d9c3c;
      }
    </style>
    <linearGradient id="linear-gradient" x1="0.5" y1="1" x2="0.5" gradientUnits="objectBoundingBox">
      <stop offset="0" stop-color="#34aa44"/>
      <stop offset="1" stop-color="#38b249"/>
    </linearGradient>
  </defs>
  <g id="组_4663" data-name="组 4663" transform="translate(-131.996 -65.291)">
    <g id="矩形_1831" data-name="矩形 1831" class="cls-1" transform="translate(131.996 65.291)">
      <rect class="cls-4" width="20" height="20"/>
      <rect class="cls-5" x="0.5" y="0.5" width="19" height="19"/>
    </g>
    <g id="路径_3537" data-name="路径 3537" class="cls-2" transform="translate(-167.979 -361.103)">
      <path class="cls-4" d="M 314.5521850585938 436.0856018066406 L 306.3210144042969 436.0856018066406 L 306.3210144042969 435.4316711425781 C 306.3210144042969 435.2831726074219 306.4418029785156 435.1623840332031 306.5902404785156 435.1623840332031 L 314.282958984375 435.1623840332031 C 314.431396484375 435.1623840332031 314.5521850585938 435.2831726074219 314.5521850585938 435.4316711425781 L 314.5521850585938 436.0856018066406 Z"/>
      <path class="cls-6" d="M 315.0521850585938 436.5856018066406 L 305.8210144042969 436.5856018066406 L 305.8210144042969 435.4316711425781 C 305.8210144042969 435.0068054199219 306.1654052734375 434.6623840332031 306.5902404785156 434.6623840332031 L 314.282958984375 434.6623840332031 C 314.707763671875 434.6623840332031 315.0521850585938 435.0068054199219 315.0521850585938 435.4316711425781 L 315.0521850585938 436.5856018066406 Z"/>
    </g>
    <path id="路径_3538" data-name="路径 3538" class="cls-3" d="M142.458,85.291a1.537,1.537,0,0,1-.889-.282l-3.936-2.789A9.212,9.212,0,0,1,134,74.837V69.543a.769.769,0,0,1,.44-.7l7.163-3.4a.72.72,0,0,1,.083-.033,2.43,2.43,0,0,1,1.55,0,.722.722,0,0,1,.083.033l7.166,3.4a.769.769,0,0,1,.44.7v5.295a9.2,9.2,0,0,1-3.606,7.36l-3.966,2.811A1.537,1.537,0,0,1,142.458,85.291Zm-6.923-15.262v4.808a7.686,7.686,0,0,0,3.018,6.149l3.905,2.766,3.936-2.789a7.668,7.668,0,0,0,2.988-6.127V70.029L142.7,66.863a.886.886,0,0,0-.491,0Z"/>
    <path id="路径_3539" data-name="路径 3539" class="cls-3" d="M478.406,287.61a.769.769,0,0,1-.769-.769v-7.367a.769.769,0,0,1,1.539,0v7.367A.769.769,0,0,1,478.406,287.61Z" transform="translate(-335.948 -208.636)"/>
  </g>
</svg>
