<?xml version="1.0" standalone="no"?>
<!DOCTYPE svg PUBLIC "-//W3C//DTD SVG 1.1//EN" "http://www.w3.org/Graphics/SVG/1.1/DTD/svg11.dtd"><svg t="1571380712235" class="icon" viewBox="0 0 1024 1024" version="1.1" xmlns="http://www.w3.org/2000/svg" p-id="3452" xmlns:xlink="http://www.w3.org/1999/xlink" width="18" height="20">
  <defs><style type="text/css"></style></defs><path d="M893.098667 212.4288C868.727467 135.918933 689.399467 96 512 96c-185.8048 0-373.768533 43.784533-383.530667 127.547733a21.137067 21.137067 0 0 0-4.736 13.252267v563.2c0 7.355733 3.729067 13.841067 9.386667 17.672533 31.709867 72.533333 206.242133 110.327467 378.88 110.327467 172.629333 0 347.170133-37.794133 378.88-110.327467a21.316267 21.316267 0 0 0 9.386667-17.672533v-571.733333a21.162667 21.162667 0 0 0-7.168-15.837867z m-35.498667 193.024A21.077333 21.077333 0 0 0 853.333333 418.133333c0 37.4016-132.9664 91.733333-341.333333 91.733334-208.3584 0-341.333333-54.331733-341.333333-91.733334 0-4.770133-1.621333-9.130667-4.266667-12.680533V292.488533C232.106667 340.138667 372.625067 364.8 512 364.8c139.3664 0 279.901867-24.6528 345.6-72.311467v112.964267z m-691.2 74.769067C232.106667 527.872 372.625067 552.533333 512 552.533333c139.3664 0 279.901867-24.661333 345.6-72.311466v112.955733c-2.653867 3.5584-4.266667 7.9104-4.266667 12.689067 0 37.4016-132.9664 91.733333-341.333333 91.733333-208.3584 0-341.333333-54.331733-341.333333-91.733333 0-4.778667-1.621333-9.130667-4.266667-12.680534V480.221867zM512 138.666667c208.366933 0 341.333333 54.331733 341.333333 91.733333S720.366933 322.133333 512 322.133333c-208.3584 0-341.333333-54.331733-341.333333-91.733333s132.974933-91.733333 341.333333-91.733333z m0 746.666666c-208.3584 0-341.333333-54.331733-341.333333-91.733333 0-4.778667-1.621333-9.130667-4.266667-12.680533V667.9552C232.106667 715.605333 372.625067 740.266667 512 740.266667c139.3664 0 279.901867-24.661333 345.6-72.311467v112.955733c-2.653867 3.5584-4.266667 7.9104-4.266667 12.689067 0 37.4016-132.9664 91.733333-341.333333 91.733333z" p-id="3453" fill="#9EA0A5"></path></svg>