<svg xmlns="http://www.w3.org/2000/svg" width="24" height="24" viewBox="0 0 24 24">
  <defs>
    <style>
      .cls-1 {
        fill: #fff;
      }

      .cls-2 {
        fill: #1c6ce1;
      }
    </style>
  </defs>
  <g id="组_4583" data-name="组 4583" transform="translate(0 0.273)">
    <rect id="Base" class="cls-1" width="24" height="24" rx="12" transform="translate(0 -0.273)"/>
    <g id="组_4553" data-name="组 4553" transform="translate(6 6.727)">
      <path id="路径_3508" data-name="路径 3508" class="cls-2" d="M654.792,126.86a3.145,3.145,0,0,0-3.008-.981.468.468,0,0,0,.2.916,2.269,2.269,0,0,1,2.158.687,2.232,2.232,0,0,1,.458,2.224.463.463,0,0,0,.033.36.582.582,0,0,0,.262.229.509.509,0,0,0,.589-.294A3.346,3.346,0,0,0,654.792,126.86Z" transform="translate(-643.609 -125.809)"/>
      <path id="路径_3509" data-name="路径 3509" class="cls-2" d="M42.8,238.626a.381.381,0,0,0,.491-.262,1.506,1.506,0,0,0-.327-1.5,1.592,1.592,0,0,0-1.471-.49.385.385,0,0,0,.164.752.756.756,0,0,1,.719.229.783.783,0,0,1,.163.752.429.429,0,0,0,.262.523Zm-.785.752c-.163-.065-.294-.1-.2-.294a1.3,1.3,0,0,0,0-1.21c-.392-.556-1.471-.523-2.681,0,0,0-.392.163-.294-.131a1.355,1.355,0,0,0-.131-1.406c-.654-.654-2.42.033-3.924,1.537a5.241,5.241,0,0,0-1.766,3.368c0,1.995,2.551,3.2,5.036,3.2,3.27,0,5.428-1.9,5.428-3.4a1.882,1.882,0,0,0-1.471-1.668Zm-3.957,4.349c-1.995.2-3.7-.719-3.826-1.995-.131-1.308,1.373-2.518,3.368-2.714s3.7.719,3.826,1.995C41.556,242.321,40.051,243.531,38.057,243.727Z" transform="translate(-33.021 -234.696)"/>
      <path id="路径_3510" data-name="路径 3510" class="cls-2" d="M245.207,540.134a2.139,2.139,0,0,0-2.42,1.046,1.466,1.466,0,0,0,.948,2.093,2.118,2.118,0,0,0,2.551-1.079,1.48,1.48,0,0,0-1.079-2.06Zm-.719,2.191a.737.737,0,0,1-.916.294.519.519,0,0,1-.2-.785.746.746,0,0,1,.883-.294A.5.5,0,0,1,244.488,542.325Z" transform="translate(-239.975 -534.831)"/>
    </g>
  </g>
</svg>
