<svg id="Tag" xmlns="http://www.w3.org/2000/svg" width="24" height="24" viewBox="0 0 24 24">
  <defs>
    <style>
      .cls-1 {
        fill: #fc4b4b;
      }

      .cls-2 {
        fill: #fff;
      }
    </style>
  </defs>
  <rect id="Base" class="cls-1" width="24" height="24" rx="4"/>
  <path id="Icon" class="cls-2" d="M7.192,0a1.247,1.247,0,0,0-.869.367L.184,6.505A.628.628,0,0,0,0,6.948v3.8A1.252,1.252,0,0,0,1.253,12H5.068a.626.626,0,0,0,.4-.159h0l.008-.007,0,0,.005,0,.005-.005h0l0,0h0l0,0h0l.008-.009L9.526,7.786l.035-.035,2.073-2.073.022-.023.007-.007,0,0,.009-.01h0a1.243,1.243,0,0,0,.285-.536h0l0-.013v0l0-.011v0l0-.009V5.043l0-.009v0l0-.011v0A1.264,1.264,0,0,0,12,4.8V4.785a1.247,1.247,0,0,0-.367-.877l0,0C11.535,3.808,8.2.476,8.093.367L8.081.356h0L8.07.345h0L8.058.334h0L8.046.323l0,0L8.034.312h0L8.022.3l0,0L8.01.292l0,0L8,.281l0,0L7.986.271l0,0L7.973.262h0A1.25,1.25,0,0,0,7.223,0Zm.016,1.511a.623.623,0,0,1,.442.183L10.306,4.35a.626.626,0,0,1,0,.885L4.885,10.657a.312.312,0,0,1-.221.092H1.879a.626.626,0,0,1-.626-.626V7.337a.312.312,0,0,1,.091-.222L6.765,1.694a.624.624,0,0,1,.386-.18ZM2.387,8.988a.626.626,0,1,0,.626-.626A.626.626,0,0,0,2.387,8.988Z" transform="translate(6 6)"/>
</svg>
