<svg id="Tag" xmlns="http://www.w3.org/2000/svg" width="24" height="24" viewBox="0 0 24 24">
  <defs>
    <style>
      .cls-1 {
        fill: #1890ff;
      }

      .cls-2 {
        fill: #fff;
      }
    </style>
  </defs>
  <rect id="Base" class="cls-1" width="24" height="24" rx="4"/>
  <path id="Icon" class="cls-2" d="M9.675,0a.607.607,0,0,0-.612.6.606.606,0,0,0,.612.6h.263a.612.612,0,0,1,.619.6A.546.546,0,0,1,10.514,2,4.7,4.7,0,0,1,6,4.8,4.7,4.7,0,0,1,1.486,2a.546.546,0,0,1-.043-.208.613.613,0,0,1,.619-.6h.263A.606.606,0,0,0,2.937.6.607.607,0,0,0,2.325,0H1.232A1.215,1.215,0,0,0,0,1.181a1.119,1.119,0,0,0,.027.238A5.71,5.71,0,0,0,3.7,5.6,3.563,3.563,0,0,0,2.325,8.4v.023a3.526,3.526,0,0,0,.313,1.433,3.7,3.7,0,0,0,6.994-.9,3.668,3.668,0,0,0,.043-.564A3.561,3.561,0,0,0,8.3,5.6a5.712,5.712,0,0,0,3.672-4.178A1.118,1.118,0,0,0,12,1.181,1.215,1.215,0,0,0,10.768,0ZM6,6A2.4,2.4,0,1,1,3.55,8.4,2.428,2.428,0,0,1,6,6ZM4.7,1.273a.591.591,0,0,0,0,.849.622.622,0,0,0,.866,0L6,1.7,7.046,2.722a.621.621,0,0,0,.866,0,.592.592,0,0,0,0-.849L6,0Z" transform="translate(6 6)"/>
</svg>
