<svg id="Tag" xmlns="http://www.w3.org/2000/svg" width="24" height="24" viewBox="0 0 24 24">
  <defs>
    <style>
      .cls-1 {
        fill: #67c23a;
      }

      .cls-2 {
        fill: #fff;
      }
    </style>
  </defs>
  <rect id="Base" class="cls-1" width="24" height="24" rx="4"/>
  <path id="Icon" class="cls-2" d="M609.8,192.2H611v-2.4h-1.2Zm7.2-2.4v3.6a.605.605,0,0,1-.6.606h-1.2c0-.6-.269-.6-.6-.6a.6.6,0,0,0-.6.6v1.2a.6.6,0,0,0,.6.6c.331,0,.6,0,.6-.6H617A1.2,1.2,0,0,0,618.2,194v-4.2Zm3-1.2v-2.4a1.2,1.2,0,0,0-1.2-1.2h-2.4a1.2,1.2,0,0,0-1.2,1.2v2.4a1.2,1.2,0,0,0,1.2,1.2h2.4A1.2,1.2,0,0,0,620,188.6Zm-1.2-.6a.6.6,0,0,1-.6.6H617a.6.6,0,0,1-.6-.6v-1.2a.6.6,0,0,1,.6-.6h1.2a.6.6,0,0,1,.6.6Zm-6,7.8v-2.4a1.2,1.2,0,0,0-1.2-1.2h-2.4a1.2,1.2,0,0,0-1.2,1.2v2.4a1.2,1.2,0,0,0,1.2,1.2h2.4A1.2,1.2,0,0,0,612.8,195.8Zm-1.2-.6a.6.6,0,0,1-.6.6h-1.2a.6.6,0,0,1-.6-.6V194a.6.6,0,0,1,.6-.6H611a.6.6,0,0,1,.6.6Zm1.2-6.6v-2.4a1.2,1.2,0,0,0-1.2-1.2h-2.4a1.2,1.2,0,0,0-1.2,1.2v2.4a1.2,1.2,0,0,0,1.2,1.2h2.4A1.2,1.2,0,0,0,612.8,188.6Zm-1.2-.6a.6.6,0,0,1-.6.6h-1.2a.6.6,0,0,1-.6-.6v-1.2a.6.6,0,0,1,.6-.6H611a.6.6,0,0,1,.6.6Z" transform="translate(-602 -179)"/>
</svg>
