<svg id="Tag" xmlns="http://www.w3.org/2000/svg" width="24" height="24" viewBox="0 0 24 24">
  <defs>
    <style>
      .cls-1 {
        fill: #fbd437;
      }

      .cls-2 {
        fill: #fff;
      }
    </style>
  </defs>
  <path id="Base" class="cls-1" d="M4,0H20a4.012,4.012,0,0,1,4,4V20a4.012,4.012,0,0,1-4,4H4a4.012,4.012,0,0,1-4-4V4A4.012,4.012,0,0,1,4,0Z"/>
  <path id="路径_3549" data-name="路径 3549" class="cls-2" d="M17.9,11.7a5.96,5.96,0,0,0-5.3-5.3h-1A5.9,5.9,0,0,0,6,11.7v1a6.022,6.022,0,0,0,5.6,5.6h1a5.9,5.9,0,0,0,5.3-5.6v-.4C18,12.1,17.9,11.9,17.9,11.7Zm-1-.1a4.987,4.987,0,0,1-4.3-4.3A5.2,5.2,0,0,1,16.9,11.6ZM7,12.7a4.947,4.947,0,0,1,4.6,4.6A5.03,5.03,0,0,1,7,12.7Zm5.6,4.5A6.022,6.022,0,0,0,7,11.6a5.009,5.009,0,0,1,4.6-4.3,5.96,5.96,0,0,0,5.3,5.3A5.009,5.009,0,0,1,12.6,17.2Z"/>
</svg>
