<svg id="Tag" xmlns="http://www.w3.org/2000/svg" width="24" height="24" viewBox="0 0 24 24">
  <defs>
    <style>
      .cls-1 {
        fill: #fbd437;
      }

      .cls-2 {
        fill: #fff;
      }
    </style>
  </defs>
  <rect id="Base" class="cls-1" width="24" height="24" rx="4"/>
  <path id="Icon" class="cls-2" d="M811.739,645.051A6.1,6.1,0,0,0,811,645c-.154,0-.309.01-.463.022m6.417,5.242a6.008,6.008,0,0,1,.029,1.2m-11.937.274a6.025,6.025,0,0,1-.029-1.2m6.446,6.44c-.154.012-.309.022-.463.022a5.959,5.959,0,0,1-.739-.051m6.692-6.685a5.977,5.977,0,0,0-5.215-5.213A6.1,6.1,0,0,0,811,645c-.154,0-.309.01-.463.022A6,6,0,0,0,811,657c.154,0,.309-.01.463-.022a5.988,5.988,0,0,0,5.491-6.714m-10.687,1.521a4.774,4.774,0,1,1,1.336,2.609,4.763,4.763,0,0,1-1.336-2.609m4.3-5.564a5.976,5.976,0,0,0,5.215,5.213,4.792,4.792,0,0,1-4.347,4.345,5.977,5.977,0,0,0-5.215-5.212,4.792,4.792,0,0,1,4.347-4.346m5.167,3.995a4.774,4.774,0,1,1-1.336-2.61,4.767,4.767,0,0,1,1.336,2.61" transform="translate(-799 -639)"/>
</svg>
