<svg xmlns="http://www.w3.org/2000/svg" width="24" height="24" viewBox="0 0 24 24">
  <defs>
    <style>
      .cls-1 {
        fill: #fff;
      }

      .cls-2 {
        fill: #1c6ce1;
      }
    </style>
  </defs>
  <g id="组_4582" data-name="组 4582" transform="translate(0 0.136)">
    <rect id="Base" class="cls-1" width="24" height="24" rx="12" transform="translate(0 -0.136)"/>
    <path id="路径_3512" data-name="路径 3512" class="cls-2" d="M68.638,170.9a5.9,5.9,0,0,0,.6-1.489l1.252.518-.367.712s.086.086.41.043,2.417-1.1,3.863-.863a2.675,2.675,0,0,1,2.353,2.309v4.338a2.354,2.354,0,0,1-1.273,1.791,6.1,6.1,0,0,1-2.849.108l.086-.712a3.836,3.836,0,0,0,1.662.022,1.29,1.29,0,0,0,.82-.712v-5.158a1.431,1.431,0,0,0-.691-.906,1.848,1.848,0,0,0-1.532-.237,6.937,6.937,0,0,0-1.619.561l-.54,1.079H74.53v.734H72.264v.928h2.353v.648l-2.309.086v1.748l1.1-.5-.086-.755.885-.194.669,1.748-1.1.518-.13-.626a15.116,15.116,0,0,1-2.914.95,2.241,2.241,0,0,1-2.05-.691,3.32,3.32,0,0,1-.3-1.705l1.489.043a1.684,1.684,0,0,0,.173,1.058,1.067,1.067,0,0,0,.95.3v-1.964l-2.288-.065v-.626h2.309l-.022-.928-.712-.13s-.6.928-.993.906-.432-.561-.432-.561l1.252-1.576-.691-.065-1.036,1.23-.777-.691a3.924,3.924,0,0,0,1.036-1.23ZM66,171.873l-.777,1.1s1.662.842,1.813,1.511c.13.669-2.288,2.676-2.288,2.676l1.727,1.273s1.791-3.173,1.662-4.209S66,171.873,66,171.873Zm.928-.475a1.018,1.018,0,0,0,1.014-1.036,1.032,1.032,0,0,0-1.014-1.036,1.036,1.036,0,0,0,0,2.072Z" transform="translate(-58.753 -162.326)"/>
  </g>
</svg>
