<svg xmlns="http://www.w3.org/2000/svg" width="21.062" height="20.984" viewBox="0 0 21.062 20.984">
  <defs>
    <style>
      .cls-1, .cls-2 {
        fill: #9ea0a5;
      }

      .cls-1 {
        stroke: rgba(0,0,0,0);
        opacity: 0;
      }
    </style>
  </defs>
  <g id="组_4672" data-name="组 4672" transform="translate(-11.5 -8.5)">
    <path id="Icon" class="cls-1" d="M9.007,19.984V9.824L7.715,11.115,6.3,9.7l3.7-3.7,3.7,3.7L12.3,11.115,11.006,9.824v10.16Zm4-5.993v-2h.154c.459,0,.857.01,1.21.01a5.871,5.871,0,0,0,1.376-.117l.011,0h0a2.907,2.907,0,0,0,.97-.44A3.006,3.006,0,0,0,16.4,6.337,2.961,2.961,0,0,0,14.9,6.011a4.658,4.658,0,0,0-3.8-3.865c-3.239-.608-7.113,1.82-5.9,6.147l.005.018q.018.064.037.128a1.864,1.864,0,0,0-1.695-.4c-1.868.512-2.8,3.956,1.564,3.956H7.008v2h-2.8A4.119,4.119,0,0,1,0,9.978,3.89,3.89,0,0,1,.732,7.717,4.3,4.3,0,0,1,3.075,6.1,6.92,6.92,0,0,1,6.5.956l0,0L6.534.937h0L6.566.919l.006,0L6.6.9l.009,0L6.63.883,6.647.874,6.664.864l.019-.01L6.7.847,6.717.835,6.731.828,6.757.814l0,0L6.793.8h0A7.062,7.062,0,0,1,9.991,0h.086A6.885,6.885,0,0,1,13.89,1.184a7.254,7.254,0,0,1,2.558,3.055l.049.015.012,0,.038.012.011,0,.041.013.008,0a4.967,4.967,0,0,1,3.292,5.7V10l-.005.025,0,.011-.01.044,0,.009,0,.019,0,.016,0,.018,0,.02,0,.014-.018.072,0,.006-.008.031,0,.008q-.016.057-.033.113h0a4.859,4.859,0,0,1-1.44,2.225l-.006.005-.026.023-.007.006-.032.028a5.375,5.375,0,0,1-1.026.7l-.009,0-.029.015A6.4,6.4,0,0,1,14.173,14C13.785,14,13.4,13.991,13,13.991Z" transform="translate(12 9)"/>
    <path id="路径_3496" data-name="路径 3496" class="cls-2" d="M11.458,6.118H8.466a1,1,0,0,1,0-2h2.991a1,1,0,0,1,0,2Zm8.264.608a.9.9,0,0,0-1.269,0l-.509.51q-.032-.332-.091-.663A7.978,7.978,0,0,0,4.443,2.254,1,1,0,0,0,5.831,3.688a5.983,5.983,0,0,1,10,5.616,1,1,0,0,0,1.791.791l2.1-2.1A.9.9,0,0,0,19.722,6.726Zm-4.056,5.459a1,1,0,0,0-1.41.007A5.983,5.983,0,0,1,4.163,6.665a1,1,0,0,0-1.132-1.2.892.892,0,0,0-.432.182,1.008,1.008,0,0,0-.178.168L.262,7.971a.9.9,0,0,0,1.269,1.27l.523-.523q.031.339.092.676a7.976,7.976,0,0,0,13.527,4.2A1,1,0,0,0,15.666,12.186ZM12.455,7.914a1,1,0,0,0-1-1H8.466a1,1,0,0,0,0,2h2.991a1,1,0,0,0,1-1Zm0,2.794a1,1,0,0,0-1-1H8.466a1,1,0,0,0,0,2h2.991a1,1,0,0,0,1-1Z" transform="translate(29.984 8.984) rotate(90)"/>
  </g>
</svg>
