<svg xmlns="http://www.w3.org/2000/svg" width="24" height="24" viewBox="0 0 24 24">
  <defs>
    <style>
      .cls-1 {
        fill: #fff;
      }

      .cls-2 {
        fill: #1c6ce1;
      }
    </style>
  </defs>
  <g id="组_4584" data-name="组 4584" transform="translate(0 0.41)">
    <rect id="Base" class="cls-1" width="24" height="24" rx="12" transform="translate(0 -0.41)"/>
    <g id="组_4552" data-name="组 4552" transform="translate(6 7)">
      <path id="路径_3506" data-name="路径 3506" class="cls-2" d="M33.135,128.092a2.136,2.136,0,0,1,.424.028,4.254,4.254,0,0,0-4.292-2.965c-2.344,0-4.235,1.581-4.235,3.614a3.5,3.5,0,0,0,1.694,2.852l-.424,1.271,1.5-.734a6.858,6.858,0,0,0,1.5.226,1.865,1.865,0,0,0,.4-.028,3.182,3.182,0,0,1-.141-.9,3.476,3.476,0,0,1,3.586-3.36Zm-2.259-1.129a.536.536,0,1,1,0,1.073.622.622,0,0,1-.649-.536A.585.585,0,0,1,30.876,126.963Zm-2.993,1.045a.622.622,0,0,1-.649-.536.6.6,0,0,1,.649-.536.5.5,0,0,1,.536.536A.49.49,0,0,1,27.883,128.008Zm0,0" transform="translate(-25.031 -125.156)"/>
      <path id="路径_3507" data-name="路径 3507" class="cls-2" d="M416.828,385.371c0-1.694-1.694-3.078-3.614-3.078a3.117,3.117,0,1,0,0,6.155,5.012,5.012,0,0,0,1.271-.226l1.158.649-.311-1.073a3.227,3.227,0,0,0,1.5-2.428Zm-4.8-.536a.455.455,0,0,1-.424-.424.48.48,0,0,1,.424-.424.507.507,0,0,1,.536.424A.487.487,0,0,1,412.028,384.834Zm2.344,0a.455.455,0,0,1-.424-.424.48.48,0,0,1,.424-.424.435.435,0,1,1,0,.847Zm0,0" transform="translate(-404.828 -379.102)"/>
    </g>
  </g>
</svg>
