<?xml version="1.0" standalone="no"?><!DOCTYPE svg PUBLIC "-//W3C//DTD SVG 1.1//EN" "http://www.w3.org/Graphics/SVG/1.1/DTD/svg11.dtd"><svg t="1571563702707" class="icon" viewBox="0 0 1024 1024" version="1.1" xmlns="http://www.w3.org/2000/svg" p-id="3769" xmlns:xlink="http://www.w3.org/1999/xlink" width="24" height="24"><defs><style type="text/css"></style></defs><path d="M691.537 318.713c11.305 0 22.491 0.83 33.587 2.065-30.178-140.519-180.417-244.922-351.905-244.922-191.721 0-348.77 130.677-348.77 296.612 0 95.781 52.25 174.437 139.561 235.444l-34.884 104.916 121.923-61.138c43.628 8.634 78.631 17.513 122.168 17.513 10.945 0 21.796-0.541 32.559-1.386-6.814-23.317-10.762-47.739-10.762-73.080 0.001-152.368 130.849-276.023 296.521-276.023zM504.010 224.153c26.261 0 43.659 17.277 43.659 43.52 0 26.139-17.396 43.655-43.659 43.655-26.14 0-52.371-17.516-52.371-43.655 0-26.244 26.229-43.52 52.371-43.52zM259.918 311.328c-26.137 0-52.519-17.516-52.519-43.655 0-26.243 26.381-43.52 52.519-43.52 26.139 0 43.537 17.277 43.537 43.52 0 26.139-17.397 43.655-43.537 43.655zM1009.856 590.545c0-139.436-139.534-253.094-296.248-253.094-165.943 0-296.639 113.657-296.639 253.094 0 139.675 130.698 253.094 296.639 253.094 34.733 0 69.765-8.758 104.646-17.501l95.663 52.383-26.229-87.157c70.007-52.52 122.167-122.164 122.167-200.819zM617.43 546.905c-17.365 0-34.884-17.277-34.884-34.897 0-17.377 17.518-34.879 34.884-34.879 26.381 0 43.659 17.501 43.659 34.879 0 17.622-17.278 34.897-43.659 34.897zM809.273 546.905c-17.247 0-34.643-17.277-34.643-34.897 0-17.377 17.396-34.879 34.643-34.879 26.139 0 43.654 17.501 43.654 34.879 0.001 17.622-17.514 34.897-43.654 34.897z" p-id="3770" fill="#1461D2"></path></svg>