<?xml version="1.0" standalone="no"?>
<!DOCTYPE svg PUBLIC "-//W3C//DTD SVG 1.1//EN" "http://www.w3.org/Graphics/SVG/1.1/DTD/svg11.dtd">
<svg t="1571380154451" class="icon" viewBox="0 0 1024 1024" version="1.1" xmlns="http://www.w3.org/2000/svg" p-id="2117"
     xmlns:xlink="http://www.w3.org/1999/xlink" width="18" height="20">
  <defs><style type="text/css"></style></defs><path d="M808.6 403.2c0-178.8-129.8-308.5-308.5-308.5-170.1 0-308.5 138.4-308.5 308.5 0 125.6 170.6 338.3 262.3 452.6l6.8 8.4c9.6 12 24 18.9 39.5 18.9 15.4 0 29.8-6.9 39.5-18.9l6.8-8.4c91.5-114.3 262.1-327 262.1-452.6z m-310.1 89.4c-62.9 0-114-51.1-114-114s51.1-114 114-114 114 51.1 114 114-51.1 114-114 114z" fill="#9EA0A5" p-id="2118"></path><path d="M500.1 67.8c-184.9 0-335.4 150.4-335.4 335.4 0 135 174.5 352.5 268.2 469.4l6.7 8.4c14.8 18.4 36.8 29 60.4 29s45.6-10.6 60.4-29l6.8-8.4C661 755.7 835.4 538.2 835.4 403.2c0-194.3-141-335.4-335.3-335.4z m0 815.3c-15.4 0-29.8-6.9-39.5-18.9l-6.8-8.4c-91.7-114.3-262.3-327-262.3-452.6 0-170.1 138.4-308.5 308.5-308.5 178.8 0 308.5 129.8 308.5 308.5 0 125.6-170.6 338.3-262.3 452.6l-6.8 8.4c-9.5 12-23.9 18.9-39.3 18.9z" fill="#9EA0A5" p-id="2119"></path><path d="M498.5 378.6m-87.2 0a87.2 87.2 0 1 0 174.4 0 87.2 87.2 0 1 0-174.4 0Z" fill="#9EA0A5" p-id="2120"></path><path d="M612.5 378.6c0-62.9-51.1-114-114-114s-114 51.1-114 114 51.1 114 114 114 114-51.1 114-114z m-201.2 0c0-48.1 39.1-87.2 87.2-87.2s87.2 39.1 87.2 87.2-39.1 87.2-87.2 87.2-87.2-39.1-87.2-87.2z" fill="#9EA0A5" p-id="2121"></path></svg>